<?xml version="1.0" encoding="UTF-8"?> <svg xmlns="http://www.w3.org/2000/svg" id="Layer_2" viewBox="0 0 497.17 81.9"><defs><style>.cls-3{fill:#133466}</style></defs><g id="Layer_3_copy"><path class="cls-3" d="M51.45 72.57c3.36-.67 9.37-4.14 14.63-7.19 6.37-3.7 9.34-2.93 9.18-2.68-7.19 11.53-19.98 19.2-34.56 19.2-18.12 0-33.48-11.84-38.75-28.21-1.27-3.93 4.5 8.73 8.55 10.32 24.5 9.6 21.08 12.51 40.95 8.57ZM19.6 36.75c6.7-.23 13.17.97 19.48 3.1 7.8 2.64 15.72 4.05 23.95 2.64 6.66-1.15 12.54-3.77 17-9.09.69-.82.52-1.25-.14-1.88-10.24-9.87-28.08-13.76-41.86-6.9-3.06 1.52-6.17 2.94-9.32 4.26-8.04 3.38-15.48 1.48-20.98-5.26-.77-.95-1.51-1.92-2.36-2.99C1.54 27.48-.15 34.67 0 42.37c.74-.04 1.2-.44 1.7-.73 5.54-3.18 11.54-4.68 17.89-4.9Zm49.03-8.04c1.04.06 1.56.7 1.59 1.68.03.89-.77 1.65-1.81 1.66-.83-.11-1.44-.61-1.48-1.65-.04-1.01.69-1.75 1.7-1.69Z"></path><path d="M80.17 41.15c-1.67 1.2-3.27 2.49-5.1 3.45-7.54 3.96-15.52 4.42-23.72 2.99-5.58-.97-10.92-2.91-16.38-4.35-5.85-1.55-11.73-2.09-17.75-1.06-5.46.94-10.31 3.27-15.06 5.96-1.23.7-.99 1.13-.23 1.96 6.87 7.52 15.53 11.19 25.54 11.87 7.4.5 14.54-.81 21.45-3.48 3.87-1.5 7.7-3.09 11.77-4.03 5.94-1.38 11.44-.86 16.11 3.51.74.69 1.06.3 1.38-.39 1.55-3.39 2.46-6.96 3.03-10.63.33-2.13.84-4.29.2-6.47-.58.02-.86.42-1.23.68Zm-64.68 9.03c-1.02-.11-1.64-.64-1.61-1.68.03-1 .58-1.63 1.62-1.68.94-.05 1.79.83 1.7 1.76-.1 1.01-.7 1.54-1.7 1.61ZM6.63 20.11c1.99 1.52 3.86 3.22 6.33 4 3.5 1.11 6.95.77 10.33-.41 4.52-1.58 9.02-3.21 13.5-4.91 4.37-1.66 8.81-3.09 13.52-3.11 7.61-.04 14.69 1.96 21.19 5.97 2.68 1.66 5.09 3.67 7.58 5.85.09-.33.14-.42.12-.5-.05-.22-.12-.44-.21-.65-2.2-5.22-5.06-10.03-9-14.14C62.3 4.19 52.63.63 41.79.05 33.11-.41 25.22 2.21 18.03 7c-4.5 3.01-8.23 6.8-11.24 11.3-.38.57-.92 1.23-.16 1.81Z" style="fill:#133466"></path><path class="cls-3" d="M75.39 60.79c-2.43-.99-4.94-1.59-7.56-1.67-4.79-.15-9.16 1.42-13.42 3.33-8.45 3.79-17.21 5.65-26.49 4.57-7.16-.83-13.74-3.16-19.51-7.58-2.25-1.73-4.2-3.76-6.19-5.78.49 2.3 1.33 4.41 2.41 6.41 8.27 15.38 23.9 23.62 41.39 21.46 13-1.61 22.83-8.38 29.73-19.47.4-.65.44-.95-.35-1.27Zm22.87-25.16V33.9l2.83-.42 2.45-19.6-3.35-.42v-1.73h8.55l5.09 16.02.58 2.89.57-2.89 4.85-16.02h8.39v1.73l-3.36.44 2.59 19.57 2.84.44v1.73h-9.2v-1.73l2.7-.42-1.49-14.18-.72-6.19-.99 3.93-5.75 18.85h-1.73l-5.72-16.84-1.73-5.86-.44 6.09-1.4 14.2 3.02.42v1.73h-8.58Zm33.54-4.71c0-.75.14-1.43.42-2.02.28-.59.67-1.11 1.16-1.56.49-.45 1.07-.83 1.74-1.15.66-.31 1.38-.57 2.15-.77.77-.2 1.57-.35 2.4-.44s1.66-.15 2.47-.17v-.83c0-.73-.05-1.35-.16-1.86-.1-.51-.29-.92-.54-1.24-.26-.32-.6-.55-1.03-.69-.43-.14-.97-.21-1.63-.21-.57 0-1.13.05-1.7.16-.57.1-1.11.23-1.63.38-.52.15-.99.31-1.43.49s-.8.33-1.09.48h-.02l-.71-1.51c.2-.19.55-.43 1.05-.72s1.1-.58 1.78-.85c.69-.27 1.42-.51 2.21-.71.79-.2 1.58-.3 2.36-.3 1.1 0 2.03.11 2.79.34.76.23 1.37.59 1.85 1.08.47.5.81 1.14 1.01 1.93.2.79.31 1.76.31 2.9v10.24h1.95v1.52c-.2.05-.44.11-.71.18a16.341 16.341 0 0 1-1.8.34c-.31.04-.61.06-.9.06s-.55-.01-.76-.04c-.21-.03-.39-.09-.53-.2s-.24-.28-.31-.49-.1-.52-.1-.9v-.58c-.14.13-.36.31-.67.56-.31.25-.69.49-1.14.74-.45.25-.96.46-1.54.64s-1.19.28-1.85.28c-.72 0-1.41-.1-2.07-.29-.65-.19-1.23-.49-1.73-.9-.5-.41-.9-.94-1.19-1.58-.3-.64-.45-1.41-.45-2.3Zm6.79 2.67c.22 0 .48-.03.79-.09.3-.06.62-.14.94-.24s.65-.24.97-.39c.32-.16.61-.33.87-.52v-5.78c-1.26 0-2.31.11-3.15.33-.84.22-1.52.51-2.02.87s-.86.77-1.07 1.23-.31.94-.31 1.45c0 .58.08 1.06.23 1.46.15.4.36.72.63.97s.58.43.95.54.76.16 1.18.16Zm11.45 2.04V33.9l2.56-.27V20.56l-2.2-.69v-1.89l4.43-.64h.08l.74.63v.94l-.02 1.96h.03c.08-.14.28-.4.58-.79.3-.39.71-.8 1.21-1.21.5-.41 1.1-.78 1.78-1.11s1.44-.49 2.27-.49c.24 0 .44.01.6.04s.29.06.41.1v3.85s-.12-.07-.24-.1c-.12-.04-.25-.07-.42-.1-.16-.03-.34-.06-.53-.09s-.4-.04-.6-.04c-1.17 0-2.12.12-2.85.35-.73.24-1.32.52-1.77.84v11.5l4.27.3v1.7h-10.34Zm14.68 0V33.9l2.59-.27V20.56l-2.2-.69v-1.89l4.79-.64h.08l.83.63v15.68l2.54.25v1.73h-8.64Zm3.83-21.25c-.3 0-.58-.06-.83-.17s-.47-.26-.64-.45c-.18-.19-.31-.42-.41-.69-.09-.27-.14-.55-.14-.86 0-.34.05-.65.15-.96.1-.3.25-.57.44-.81s.44-.42.73-.57c.29-.14.63-.21 1.02-.21h.02c.35 0 .65.06.91.19s.48.29.66.49c.18.2.31.44.41.7.09.26.14.53.14.82 0 .36-.05.69-.15.99-.1.3-.25.57-.46.79-.2.23-.46.4-.76.53s-.66.2-1.07.2h-.02Zm7.76 21.25V33.9l2.11-.27V20.56l-2.2-.69v-1.89l4.48-.64h.08l.77.63v1.23l-.03.68c.35-.31.77-.62 1.28-.92s1.05-.57 1.63-.8 1.17-.43 1.78-.57c.61-.15 1.19-.22 1.74-.22 1.04 0 1.89.14 2.56.42s1.2.73 1.58 1.34c.38.61.65 1.38.79 2.32.15.94.22 2.07.22 3.39v8.81l2.32.27v1.73h-7.9v-1.73l2.07-.27v-8.83c0-.84-.04-1.57-.11-2.2-.07-.63-.22-1.15-.45-1.57-.23-.42-.55-.73-.97-.94-.42-.21-.97-.31-1.65-.31-.8 0-1.59.14-2.4.43s-1.5.65-2.1 1.09v12.33l2.21.27v1.73h-7.82Zm29.49.37c-1.33 0-2.49-.23-3.5-.69-1-.46-1.84-1.11-2.51-1.93-.67-.83-1.17-1.81-1.51-2.96-.34-1.15-.5-2.41-.5-3.78s.21-2.66.63-3.81c.42-1.15 1-2.13 1.75-2.95a7.89 7.89 0 0 1 2.66-1.91c1.03-.45 2.15-.68 3.36-.68 1.98 0 3.51.54 4.6 1.61 1.09 1.07 1.68 2.66 1.78 4.77.01.68 0 1.27-.02 1.78s-.07.96-.16 1.34h-10.87v.09c.04 1.19.21 2.22.52 3.06.3.85.7 1.54 1.19 2.08s1.04.93 1.67 1.18c.63.25 1.28.37 1.96.37.45 0 .91-.04 1.37-.13.46-.08.9-.19 1.33-.33.42-.14.81-.29 1.16-.47s.64-.36.87-.53l.66 1.54c-.3.3-.69.6-1.15.88-.47.28-.98.53-1.56.75-.57.21-1.18.39-1.81.52-.64.13-1.28.2-1.93.2Zm-.39-16.83c-.52 0-1.01.09-1.46.28-.45.18-.85.49-1.19.94-.34.44-.62 1.03-.83 1.76-.21.73-.35 1.66-.4 2.76h7.29c.02-.21.03-.43.04-.66s0-.45 0-.64c0-.59-.06-1.15-.19-1.68s-.32-1.01-.6-1.41-.63-.73-1.06-.97-.97-.36-1.61-.36ZM233.99 36c-.93 0-1.79-.07-2.57-.21-.78-.14-1.48-.3-2.1-.48-.62-.18-1.15-.35-1.59-.5-.45-.16-.79-.25-1.04-.27l.27-5.8h2.17l.66 3.9c.18.2.41.39.71.56.29.18.63.33 1.01.46s.79.23 1.23.31c.44.07.9.11 1.37.11 1.58 0 2.75-.35 3.5-1.04.75-.7 1.12-1.65 1.12-2.87 0-.64-.12-1.2-.37-1.68s-.6-.92-1.07-1.32c-.47-.4-1.03-.77-1.69-1.12s-1.4-.71-2.21-1.09c-.65-.29-1.34-.64-2.08-1.05s-1.42-.91-2.05-1.5a7.86 7.86 0 0 1-1.57-2.07c-.42-.79-.63-1.7-.63-2.75 0-.9.19-1.72.56-2.47.37-.75.9-1.39 1.57-1.94s1.49-.97 2.43-1.26 2-.45 3.17-.45c.72 0 1.41.05 2.06.16s1.24.22 1.78.35c.54.13 1.01.26 1.42.39.41.13.73.22.97.26l-.2 5.33h-2.09l-.77-3.69c-.09-.1-.25-.21-.46-.32-.21-.11-.47-.21-.75-.29a9.54 9.54 0 0 0-.97-.21 6.62 6.62 0 0 0-1.1-.09c-1.43 0-2.48.28-3.15.83-.67.56-1 1.4-1 2.53 0 .61.12 1.14.35 1.6.24.45.58.87 1.03 1.26.45.38 1.01.76 1.68 1.12s1.43.76 2.29 1.19c.77.39 1.56.8 2.35 1.25.79.45 1.5.95 2.14 1.52.63.56 1.15 1.21 1.55 1.94.4.73.6 1.57.6 2.54 0 .83-.18 1.65-.55 2.47s-.91 1.56-1.62 2.21c-.71.66-1.6 1.18-2.66 1.59-1.06.4-2.29.6-3.68.6Zm11.28-9.04c0-1.31.2-2.55.61-3.71.41-1.17 1-2.19 1.78-3.08.78-.88 1.74-1.59 2.87-2.1 1.13-.52 2.41-.78 3.83-.78.52 0 1.03.03 1.51.1s.93.15 1.34.25c.41.1.78.21 1.11.32.32.12.59.22.8.31l-.16 4.62h-2.12l-.71-2.61c-.27-.36-.62-.63-1.03-.83-.41-.19-.92-.29-1.52-.29s-1.17.14-1.71.41c-.54.27-1.03.68-1.45 1.23-.42.55-.76 1.24-1.02 2.06-.26.82-.39 1.78-.4 2.88-.01 1.41.13 2.62.42 3.61.29.99.67 1.8 1.15 2.43s1.04 1.08 1.68 1.36c.64.28 1.3.42 1.99.42.49 0 .96-.04 1.39-.13s.84-.19 1.2-.33.7-.29 1.01-.46c.3-.17.57-.34.8-.51l.69 1.51c-.28.29-.63.58-1.05.86-.42.28-.89.53-1.41.75-.52.22-1.07.4-1.64.53-.58.14-1.16.2-1.76.2-1.35 0-2.54-.23-3.56-.7s-1.87-1.1-2.56-1.91c-.69-.81-1.2-1.76-1.55-2.87-.35-1.1-.53-2.29-.54-3.56Zm16.29 8.67V33.9l2.59-.27V20.56l-2.2-.69v-1.89l4.79-.64h.08l.83.63v15.68l2.54.25v1.73h-8.64Zm3.84-21.25c-.3 0-.58-.06-.83-.17s-.47-.26-.64-.45c-.18-.19-.31-.42-.41-.69-.09-.27-.14-.55-.14-.86 0-.34.05-.65.15-.96.1-.3.25-.57.44-.81s.44-.42.73-.57c.29-.14.63-.21 1.02-.21h.02c.35 0 .65.06.91.19s.48.29.66.49c.18.2.31.44.41.7.09.26.14.53.14.82 0 .36-.05.69-.15.99-.1.3-.25.57-.46.79-.2.23-.46.4-.76.53s-.66.2-1.07.2h-.02ZM280.73 36c-1.33 0-2.49-.23-3.5-.69-1-.46-1.84-1.11-2.51-1.93-.67-.83-1.17-1.81-1.51-2.96-.34-1.15-.5-2.41-.5-3.78s.21-2.66.63-3.81c.42-1.15 1-2.13 1.75-2.95a7.89 7.89 0 0 1 2.66-1.91c1.03-.45 2.15-.68 3.36-.68 1.98 0 3.51.54 4.6 1.61 1.09 1.07 1.68 2.66 1.78 4.77.01.68 0 1.27-.02 1.78s-.07.96-.16 1.34h-10.87v.09c.04 1.19.21 2.22.52 3.06.3.85.7 1.54 1.19 2.08s1.04.93 1.67 1.18c.63.25 1.28.37 1.96.37.45 0 .91-.04 1.37-.13.46-.08.9-.19 1.33-.33.42-.14.81-.29 1.16-.47s.64-.36.87-.53l.66 1.54c-.3.3-.69.6-1.15.88-.47.28-.98.53-1.56.75-.57.21-1.18.39-1.81.52-.64.13-1.28.2-1.93.2Zm-.39-16.83c-.52 0-1.01.09-1.46.28-.45.18-.85.49-1.19.94-.34.44-.62 1.03-.83 1.76-.21.73-.35 1.66-.4 2.76h7.29c.02-.21.03-.43.04-.66s0-.45 0-.64c0-.59-.06-1.15-.19-1.68s-.32-1.01-.6-1.41-.63-.73-1.06-.97-.97-.36-1.61-.36Zm10.37 16.46V33.9l2.11-.27V20.56l-2.2-.69v-1.89l4.48-.64h.08l.77.63v1.23l-.03.68c.35-.31.77-.62 1.28-.92s1.05-.57 1.63-.8 1.17-.43 1.78-.57c.61-.15 1.19-.22 1.74-.22 1.04 0 1.89.14 2.56.42s1.2.73 1.58 1.34c.38.61.65 1.38.79 2.32.15.94.22 2.07.22 3.39v8.81l2.32.27v1.73h-7.9v-1.73l2.07-.27v-8.83c0-.84-.04-1.57-.11-2.2-.07-.63-.22-1.15-.45-1.57-.23-.42-.55-.73-.97-.94-.42-.21-.97-.31-1.65-.31-.8 0-1.59.14-2.4.43s-1.5.65-2.1 1.09v12.33l2.21.27v1.73h-7.82Zm21.52-8.67c0-1.31.2-2.55.61-3.71.41-1.17 1-2.19 1.78-3.08.78-.88 1.74-1.59 2.87-2.1 1.13-.52 2.41-.78 3.83-.78.52 0 1.03.03 1.51.1s.93.15 1.34.25c.41.1.78.21 1.11.32.32.12.59.22.8.31l-.16 4.62h-2.12l-.71-2.61c-.27-.36-.62-.63-1.03-.83-.41-.19-.92-.29-1.52-.29s-1.17.14-1.71.41c-.54.27-1.03.68-1.45 1.23-.42.55-.76 1.24-1.02 2.06-.26.82-.39 1.78-.4 2.88-.01 1.41.13 2.62.42 3.61.29.99.67 1.8 1.15 2.43s1.04 1.08 1.68 1.36c.64.28 1.3.42 1.99.42.49 0 .96-.04 1.39-.13s.84-.19 1.2-.33.7-.29 1.01-.46c.3-.17.57-.34.8-.51l.69 1.51c-.28.29-.63.58-1.05.86-.42.28-.89.53-1.41.75-.52.22-1.07.4-1.64.53-.58.14-1.16.2-1.76.2-1.35 0-2.54-.23-3.56-.7s-1.87-1.1-2.56-1.91c-.69-.81-1.2-1.76-1.55-2.87-.35-1.1-.53-2.29-.54-3.56ZM336.69 36c-1.33 0-2.49-.23-3.5-.69-1-.46-1.84-1.11-2.51-1.93-.67-.83-1.17-1.81-1.51-2.96-.34-1.15-.5-2.41-.5-3.78s.21-2.66.63-3.81c.42-1.15 1-2.13 1.75-2.95a7.89 7.89 0 0 1 2.66-1.91c1.03-.45 2.15-.68 3.36-.68 1.98 0 3.51.54 4.6 1.61 1.09 1.07 1.68 2.66 1.78 4.77.01.68 0 1.27-.02 1.78s-.07.96-.16 1.34H332.4v.09c.04 1.19.21 2.22.52 3.06.3.85.7 1.54 1.19 2.08s1.04.93 1.67 1.18c.63.25 1.28.37 1.96.37.45 0 .91-.04 1.37-.13.46-.08.9-.19 1.33-.33.42-.14.81-.29 1.16-.47s.64-.36.87-.53l.66 1.54c-.3.3-.69.6-1.15.88-.47.28-.98.53-1.56.75-.57.21-1.18.39-1.81.52-.64.13-1.28.2-1.93.2Zm-.39-16.83c-.52 0-1.01.09-1.46.28-.45.18-.85.49-1.19.94-.34.44-.62 1.03-.83 1.76-.21.73-.35 1.66-.4 2.76h7.29c.02-.21.03-.43.04-.66s0-.45 0-.64c0-.59-.06-1.15-.19-1.68s-.32-1.01-.6-1.41-.63-.73-1.06-.97-.97-.36-1.61-.36Zm21.11 16.46V33.9l2.84-.42v-19.6l-2.84-.42v-1.73h9.27v1.73l-2.81.42v19.6l2.81.49v1.67h-9.27Zm13.04 0V33.9l2.11-.27V20.56l-2.2-.69v-1.89l4.48-.64h.08l.77.63v1.23l-.03.68c.35-.31.77-.62 1.28-.92s1.05-.57 1.63-.8 1.17-.43 1.78-.57c.61-.15 1.19-.22 1.74-.22 1.04 0 1.89.14 2.56.42s1.2.73 1.58 1.34c.38.61.65 1.38.79 2.32.15.94.22 2.07.22 3.39v8.81l2.32.27v1.73h-7.9v-1.73l2.07-.27v-8.83c0-.84-.04-1.57-.11-2.2-.07-.63-.22-1.15-.45-1.57-.23-.42-.55-.73-.97-.94-.42-.21-.97-.31-1.65-.31-.8 0-1.59.14-2.4.43s-1.5.65-2.1 1.09v12.33l2.21.27v1.73h-7.82Zm22.17-1v-4.12h2.23l.64 2.33c.09.17.26.33.49.49s.5.31.82.44c.31.13.66.24 1.05.31.39.08.79.12 1.21.12.65 0 1.18-.07 1.6-.21.42-.14.75-.33.99-.56.24-.23.41-.5.49-.81.09-.31.13-.63.13-.95 0-.41-.09-.78-.28-1.11-.18-.33-.46-.64-.84-.94s-.86-.59-1.45-.88c-.59-.29-1.3-.59-2.11-.9-.85-.32-1.58-.67-2.2-1.04s-1.13-.78-1.54-1.23c-.41-.45-.71-.96-.9-1.52-.19-.56-.29-1.2-.29-1.91s.16-1.37.49-1.95c.33-.58.79-1.08 1.37-1.5.58-.42 1.27-.74 2.06-.97.79-.23 1.65-.34 2.57-.34.65 0 1.25.04 1.79.12.54.08 1.04.17 1.48.28.44.11.82.22 1.15.34.33.11.59.2.79.27v3.93l-2.09-.02-.69-2.03c-.14-.27-.43-.53-.89-.76-.46-.24-1.04-.35-1.75-.35-.54 0-1.01.04-1.4.16-.39.11-.7.27-.94.47-.24.2-.42.43-.53.7-.12.27-.17.55-.17.86 0 .57.12 1.03.36 1.38.24.36.56.66.95.91.39.25.84.47 1.34.66s1.02.4 1.54.63c.72.31 1.41.64 2.07.99.65.35 1.23.74 1.74 1.19.5.45.9.96 1.2 1.55.3.59.45 1.29.45 2.1s-.15 1.52-.46 2.17c-.31.65-.76 1.2-1.34 1.66-.59.46-1.3.81-2.14 1.05-.84.25-1.79.37-2.85.37-.57 0-1.15-.05-1.76-.14-.61-.09-1.19-.21-1.75-.35a15.656 15.656 0 0 1-2.61-.88Zm18.05-2.34V20.04h-2.28v-1.48c.32-.1.65-.21.97-.33.32-.12.55-.22.7-.31.35-.24.64-.63.88-1.18.08-.19.19-.44.31-.75.13-.31.25-.63.37-.95s.23-.63.33-.93c.1-.29.17-.52.21-.69h2.01v4.34h5.26v2.28h-5.26v9.39c0 .93.01 1.66.04 2.18.03.52.1.91.22 1.16.12.25.3.41.54.46.24.06.57.09.99.09h.02c.3 0 .62-.02.95-.06a15.085 15.085 0 0 0 1.83-.34c.26-.07.47-.13.63-.2h.02l.53 1.54c-.25.19-.6.38-1.04.59a13.968 13.968 0 0 1-3.05.98c-.56.11-1.08.17-1.57.17h-.03c-.56 0-1.05-.06-1.49-.19-.44-.13-.81-.33-1.12-.62-.31-.29-.55-.67-.71-1.15-.17-.48-.25-1.06-.25-1.75Zm11.09 3.34V33.9l2.59-.27V20.56l-2.2-.69v-1.89l4.79-.64h.08l.83.63v15.68l2.54.25v1.73h-8.64Zm3.83-21.25c-.3 0-.58-.06-.83-.17s-.47-.26-.64-.45c-.18-.19-.31-.42-.41-.69-.09-.27-.14-.55-.14-.86 0-.34.05-.65.15-.96.1-.3.25-.57.44-.81s.44-.42.73-.57c.29-.14.63-.21 1.02-.21h.02c.35 0 .65.06.91.19s.48.29.66.49c.18.2.31.44.41.7.09.26.14.53.14.82 0 .36-.05.69-.15.99-.1.3-.25.57-.46.79-.2.23-.46.4-.76.53s-.66.2-1.07.2h-.02Zm9.5 17.91V20.04h-2.28v-1.48c.32-.1.65-.21.97-.33.32-.12.55-.22.7-.31.35-.24.64-.63.88-1.18.08-.19.19-.44.31-.75.13-.31.25-.63.37-.95s.23-.63.33-.93c.1-.29.17-.52.21-.69h2.01v4.34h5.26v2.28h-5.26v9.39c0 .93.01 1.66.04 2.18.03.52.1.91.22 1.16.12.25.3.41.54.46.24.06.57.09.99.09h.02c.3 0 .62-.02.95-.06a15.085 15.085 0 0 0 1.83-.34c.26-.07.47-.13.63-.2h.02l.53 1.54c-.25.19-.6.38-1.04.59a13.968 13.968 0 0 1-3.05.98c-.56.11-1.08.17-1.57.17h-.03c-.56 0-1.05-.06-1.49-.19-.44-.13-.81-.33-1.12-.62-.31-.29-.55-.67-.71-1.15-.17-.48-.25-1.06-.25-1.75Zm26.26 3.72c-.66 0-1.16-.12-1.51-.36s-.52-.69-.52-1.35v-.64c-.29.25-.64.52-1.04.79-.4.28-.85.53-1.33.76s-.99.42-1.53.56c-.54.15-1.09.22-1.66.22-.97 0-1.81-.13-2.51-.38-.7-.25-1.28-.65-1.73-1.21-.45-.56-.78-1.27-1-2.15-.21-.88-.32-1.95-.32-3.22v-9l-1.76-.68v-1.51l4.54-.5h.02l.71.44v11.06c0 .87.04 1.6.13 2.21.09.6.25 1.09.49 1.47.24.38.57.65.98.82s.95.25 1.59.25c.46 0 .89-.05 1.3-.15.4-.1.78-.22 1.12-.36.35-.14.65-.3.93-.46.27-.17.5-.32.69-.45V20.04l-2.21-.68v-1.52l4.81-.49h.03l.88.44v16.05h1.9v1.57c-.37.11-.8.24-1.3.38s-1.07.21-1.7.21Zm7.96-3.72V20.04h-2.28v-1.48c.32-.1.65-.21.97-.33.32-.12.55-.22.7-.31.35-.24.64-.63.88-1.18.08-.19.19-.44.31-.75.13-.31.25-.63.37-.95s.23-.63.33-.93c.1-.29.17-.52.21-.69h2.01v4.34h5.26v2.28h-5.26v9.39c0 .93.01 1.66.04 2.18.03.52.1.91.22 1.16.12.25.3.41.54.46.24.06.57.09.99.09h.02c.3 0 .62-.02.95-.06a15.085 15.085 0 0 0 1.83-.34c.26-.07.47-.13.63-.2h.02l.53 1.54c-.25.19-.6.38-1.04.59a13.968 13.968 0 0 1-3.05.98c-.56.11-1.08.17-1.57.17h-.03c-.56 0-1.05-.06-1.49-.19-.44-.13-.81-.33-1.12-.62-.31-.29-.55-.67-.71-1.15-.17-.48-.25-1.06-.25-1.75ZM488.57 36c-1.33 0-2.49-.23-3.5-.69-1-.46-1.84-1.11-2.51-1.93-.67-.83-1.17-1.81-1.51-2.96-.34-1.15-.5-2.41-.5-3.78s.21-2.66.63-3.81c.42-1.15 1-2.13 1.75-2.95a7.89 7.89 0 0 1 2.66-1.91c1.03-.45 2.15-.68 3.36-.68 1.98 0 3.51.54 4.6 1.61 1.09 1.07 1.68 2.66 1.78 4.77.01.68 0 1.27-.02 1.78s-.07.96-.16 1.34h-10.87v.09c.04 1.19.21 2.22.52 3.06.3.85.7 1.54 1.19 2.08s1.04.93 1.67 1.18c.63.25 1.28.37 1.96.37.45 0 .91-.04 1.37-.13.46-.08.9-.19 1.33-.33.42-.14.81-.29 1.16-.47s.64-.36.87-.53l.66 1.54c-.3.3-.69.6-1.15.88-.47.28-.98.53-1.56.75-.57.21-1.18.39-1.81.52-.64.13-1.28.2-1.93.2Zm-.4-16.83c-.52 0-1.01.09-1.46.28-.45.18-.85.49-1.19.94-.34.44-.62 1.03-.83 1.76-.21.73-.35 1.66-.4 2.76h7.29c.02-.21.03-.43.04-.66s0-.45 0-.64c0-.59-.06-1.15-.19-1.68s-.32-1.01-.6-1.41-.63-.73-1.06-.97-.97-.36-1.61-.36Z"></path><path d="M101.18 67.01v-1.3l2.94-.39-.07-13.98-3.61.11-.76 4.47-1.77.05.38-6.05 14.24-.07.36 6.12h-1.7l-.82-4.58-3.53-.05v14.05l3.03.24.06 1.31v.07h-8.75zm21.59 0v-1.28l1.55-.27-.06-6.22c0-.59-.03-1.11-.08-1.56-.05-.44-.16-.8-.32-1.09-.16-.28-.38-.5-.67-.64-.29-.14-.68-.22-1.16-.22-.53 0-1.09.09-1.66.28s-1.08.44-1.53.77l.03 8.74 1.56.12.06 1.3v.07h-5.61v-1.3l1.41-.26-.06-15.52-1.77-.13-.06-1.13 3.77-.57h.11l.55.4.04 5.21-.08 1.86c.19-.16.41-.32.66-.49a7.792 7.792 0 0 1 2.32-1.04c.45-.12.91-.18 1.39-.18.73 0 1.34.11 1.82.31.48.21.87.54 1.15.98.28.44.48 1 .6 1.68.11.67.17 1.48.17 2.4v6.27l1.58.12.06 1.3v.07h-5.77Zm13.57.25c-.95 0-1.8-.17-2.52-.5-.72-.33-1.33-.8-1.81-1.39-.48-.59-.85-1.31-1.09-2.13-.24-.82-.36-1.73-.36-2.71s.15-1.92.45-2.73c.3-.82.72-1.54 1.26-2.13.54-.59 1.18-1.05 1.92-1.38.74-.32 1.55-.49 2.42-.49 1.42 0 2.54.39 3.33 1.17.78.77 1.22 1.93 1.28 3.44 0 .49 0 .91-.01 1.27-.02.37-.05.69-.11.97l-7.73.06c.03.87.16 1.57.36 2.15.21.59.49 1.08.83 1.46.34.37.73.65 1.16.82.44.17.9.26 1.37.26.31 0 .64-.03.96-.09.32-.06.64-.14.94-.23.3-.1.57-.21.82-.33.24-.12.45-.25.61-.37l.07-.06.51 1.18c-.24.3-.52.51-.85.72-.33.2-.71.38-1.12.54-.41.15-.85.28-1.3.37-.45.09-.92.14-1.39.14Zm2.14-8.03c-.06-.08-.05-.24-.04-.4v-.46c0-.41-.04-.81-.13-1.18-.09-.37-.23-.7-.41-.98a2.04 2.04 0 0 0-.73-.67c-.3-.16-.67-.25-1.11-.25-.36 0-.7.06-1.01.19-.31.12-.58.34-.81.64-.24.3-.43.72-.58 1.23-.15.49-.24 1.13-.28 1.88h5.11Zm20.37 7.96c-1.15 0-2.16-.15-2.99-.45-.84-.3-1.54-.77-2.08-1.38-.54-.62-.95-1.4-1.2-2.34-.25-.93-.38-2.04-.38-3.3v-8.25l-1.57-.24-.06-1.37h6.24v1.3l-1.89.37.06 8.45c0 1.11.11 2.04.32 2.77.21.73.5 1.33.86 1.76.36.44.8.75 1.29.92.5.18 1.05.27 1.64.27 1.29 0 2.28-.48 2.95-1.41.68-.94 1.02-2.35 1.02-4.18v-8.64l-1.72-.24-.06-1.37h5.42v1.3l-1.7.37.06 8.48c0 1.24-.16 2.32-.48 3.22-.32.9-.76 1.65-1.31 2.24-.55.59-1.22 1.03-1.97 1.3-.75.28-1.57.42-2.44.42Zm17.92-.18v-1.3l1.54-.26-.06-6.21c0-.59-.03-1.11-.08-1.56-.05-.44-.16-.8-.31-1.09-.15-.28-.37-.5-.66-.64-.29-.14-.67-.22-1.14-.22-.55 0-1.12.1-1.68.3-.56.2-1.06.46-1.47.77l.03 8.72 1.51.12.06 1.3v.07h-5.71v-1.3l1.56-.26-.06-9.23-1.51-.42-.05-1.41 3.25-.53h.03l.09.02.55.45.03.93v.32c.21-.19.48-.37.78-.55.36-.21.75-.4 1.17-.57.41-.17.84-.31 1.27-.41.43-.1.86-.16 1.26-.16.75 0 1.37.1 1.85.31.49.21.88.54 1.16.98.28.44.47 1 .57 1.68.1.67.16 1.48.16 2.42v6.27l1.59.12.06 1.3v.07h-5.77Zm7.69 0v-1.3l1.91-.26-.06-9.23-1.51-.42-.05-1.41 3.47-.53h.11l.59.46.03 11.21 1.75.11.06 1.3v.07h-6.29Zm2.79-15.13c-.23 0-.43-.04-.62-.12-.19-.08-.35-.2-.48-.34a1.5 1.5 0 0 1-.31-.52c-.07-.2-.1-.41-.1-.63 0-.24.04-.48.11-.7.07-.22.18-.43.33-.6.14-.17.33-.32.54-.42.22-.11.47-.16.76-.16.27 0 .5.05.69.14a1.51 1.51 0 0 1 .79.89c.07.19.1.4.1.61 0 .26-.04.51-.11.73a1.584 1.584 0 0 1-.91.99c-.22.1-.49.14-.79.14h-.01Zm10.34 15.31L193 55.76l-1.03-.27-.06-1.35h5.8v1.28l-1.75.37 2.09 6.1.97 2.93.8-2.79 2.08-6.24-1.49-.3-.06-1.35h4.85v1.28l-1.17.38-4.33 11.39h-2.11zm14.77.07c-.95 0-1.8-.17-2.52-.5-.72-.33-1.33-.8-1.81-1.39-.48-.59-.85-1.31-1.09-2.13-.24-.82-.36-1.73-.36-2.71s.15-1.92.45-2.73c.3-.82.72-1.54 1.26-2.13.54-.59 1.18-1.05 1.92-1.38.74-.32 1.55-.49 2.42-.49 1.42 0 2.54.39 3.33 1.17.78.77 1.22 1.93 1.28 3.44 0 .49 0 .91-.01 1.27-.02.37-.05.69-.11.97l-7.73.06c.03.87.16 1.57.36 2.15.21.59.49 1.08.83 1.46.34.37.73.65 1.16.82.44.17.9.26 1.37.26.31 0 .64-.03.96-.09.32-.06.64-.14.94-.23.3-.1.57-.21.82-.33.24-.12.45-.25.61-.37l.07-.06.51 1.18c-.24.3-.52.51-.85.72-.33.2-.71.38-1.12.54-.41.15-.85.28-1.3.37-.45.09-.92.14-1.39.14Zm2.14-8.03c-.06-.08-.05-.24-.04-.4v-.46c0-.41-.04-.81-.13-1.18-.09-.37-.23-.7-.41-.98a2.04 2.04 0 0 0-.73-.67c-.3-.16-.67-.25-1.11-.25-.36 0-.7.06-1.01.19-.31.12-.58.34-.81.64-.24.3-.43.72-.58 1.23-.15.49-.24 1.13-.28 1.88h5.11Zm5.12 7.78v-1.3l1.89-.26-.06-9.23-1.51-.42-.05-1.41 3.21-.53h.03l.09.02.53.45.02.73v1.2c.06-.1.16-.24.3-.41.22-.28.51-.58.87-.87s.79-.56 1.28-.8a3.903 3.903 0 0 1 2.09-.32c.12.02.22.04.3.08l.05 2.95-.11-.09s-.05-.03-.15-.06c-.08-.03-.18-.05-.29-.07-.11-.02-.24-.04-.38-.06-.13-.02-.27-.03-.42-.03-.82 0-1.5.08-2.01.25-.51.17-.93.36-1.24.59l.03 8.12 2.97.14.07 1.28v.07h-7.5Zm15.96.25c-.41 0-.83-.03-1.26-.1-.43-.07-.85-.15-1.25-.25s-.77-.21-1.09-.32c-.33-.12-.59-.22-.78-.31l-.04-3.07h1.66l.53 1.71c.05.09.16.2.32.31.16.11.35.21.57.31.22.09.47.17.74.22.27.06.55.08.85.08.45 0 .83-.05 1.12-.15.29-.1.51-.22.68-.38.16-.15.27-.34.33-.54.06-.21.09-.43.09-.66 0-.28-.06-.53-.19-.75-.13-.23-.32-.44-.58-.65-.26-.21-.61-.42-1.02-.62-.42-.2-.92-.42-1.5-.64-.6-.23-1.13-.48-1.58-.74-.44-.26-.82-.56-1.11-.89-.3-.33-.52-.7-.66-1.11-.14-.4-.21-.87-.21-1.38s.12-1.01.36-1.43c.24-.42.57-.79.99-1.09.42-.3.92-.54 1.49-.7a6.84 6.84 0 0 1 1.85-.24c.46 0 .89.03 1.28.08.39.06.74.12 1.06.2.32.08.59.16.83.24.23.08.42.14.56.19l.05 2.93h-1.56l-.56-1.5c-.09-.17-.29-.34-.6-.5-.31-.16-.72-.24-1.21-.24h-.01c-.42 0-.72.04-.96.11-.26.08-.48.19-.65.32-.16.13-.28.29-.36.47-.08.18-.12.38-.12.58 0 .39.08.7.24.94.16.24.39.45.66.63s.59.33.94.46c.36.13.73.28 1.1.45.52.22 1.01.46 1.48.71.47.24.89.53 1.25.85.36.32.66.7.87 1.13.22.43.33.94.33 1.53s-.11 1.1-.34 1.57-.55.88-.98 1.21c-.42.33-.95.58-1.55.76-.6.18-1.29.27-2.05.27Zm7.24-.25v-1.3l1.91-.26-.06-9.23-1.51-.42-.05-1.41 3.47-.53h.11l.59.46.03 11.21 1.75.11.06 1.3v.07h-6.29Zm2.8-15.13c-.23 0-.43-.04-.62-.12-.19-.08-.35-.2-.48-.34a1.5 1.5 0 0 1-.31-.52c-.07-.2-.1-.41-.1-.63 0-.24.04-.48.11-.7.07-.22.18-.43.33-.6.14-.17.33-.32.54-.42.22-.11.47-.16.76-.16.27 0 .5.05.69.14a1.51 1.51 0 0 1 .79.89c.07.19.1.4.1.61 0 .26-.04.51-.11.73a1.584 1.584 0 0 1-.91.99c-.22.1-.49.14-.79.14h-.01Zm9.79 15.38c-.4 0-.76-.05-1.08-.14-.32-.09-.6-.25-.83-.46-.23-.21-.41-.5-.53-.84-.12-.35-.18-.77-.18-1.27V55.9h-1.62v-1.12c.28-.14.51-.22.73-.3.22-.08.38-.15.48-.22.23-.16.43-.43.6-.81.06-.13.13-.31.22-.53.09-.22.18-.44.26-.67s.16-.45.23-.66c.07-.21.12-.37.15-.49l1.57-.05v3.09h3.74v1.76h-3.74v6.61c0 .66 0 1.18.03 1.55.02.36.07.63.15.8.08.16.19.25.34.29.17.04.4.06.69.06.22 0 .45-.02.68-.04a13.792 13.792 0 0 0 1.29-.24c.18-.05.33-.09.44-.14h.05l.05.04.38 1.1c-.21.22-.45.36-.78.51-.31.15-.66.28-1.03.4-.36.12-.75.22-1.15.3-.4.08-.78.12-1.13.12h-.02Zm7.98 5.45c-.11 0-.23 0-.36-.01-.13 0-.25-.02-.37-.03a2.88 2.88 0 0 1-.33-.05.788.788 0 0 1-.23-.07l-.04-2.25.1.06s.13.05.2.06c.09.02.2.04.32.06.12.02.25.03.38.04.13 0 .26.01.38.01.23 0 .49-.03.77-.09.27-.06.57-.21.87-.45.3-.24.62-.6.95-1.08.31-.46.62-1.1.93-1.89h-1.3l-4.25-11.25-1.03-.27-.05-1.35h5.78v1.28l-1.77.37 2.26 6.79.93 3.06.83-3.06 1.92-6.79-1.43-.3-.06-1.35h4.82v1.28l-1.2.38c-.53 1.79-1.03 3.39-1.45 4.75-.42 1.36-.78 2.5-1.07 3.44s-.53 1.68-.71 2.23c-.18.55-.32.94-.42 1.16-.35.89-.71 1.67-1.06 2.34-.35.66-.74 1.22-1.15 1.66-.41.44-.88.77-1.38 1-.5.22-1.1.33-1.77.33Zm23.65-5.45c-1.02 0-1.91-.18-2.64-.53-.73-.35-1.34-.84-1.81-1.45s-.82-1.33-1.03-2.15c-.22-.81-.33-1.7-.33-2.62 0-1.06.18-2.02.52-2.85.35-.83.82-1.54 1.39-2.11a5.97 5.97 0 0 1 1.96-1.31c.73-.3 1.48-.45 2.23-.45 1.03 0 1.92.18 2.65.53.73.35 1.34.84 1.8 1.45.47.61.81 1.33 1.03 2.15.22.81.33 1.7.33 2.62 0 1.07-.18 2.03-.52 2.87-.35.83-.81 1.54-1.38 2.11s-1.22 1-1.95 1.3c-.73.29-1.48.44-2.24.44Zm.16-11.93c-1.03 0-1.81.41-2.3 1.23-.5.83-.75 2.09-.75 3.75 0 .76.06 1.48.17 2.14.11.66.29 1.24.54 1.73.24.49.55.87.93 1.15.38.28.84.42 1.38.42 1.03 0 1.8-.41 2.29-1.23.49-.83.74-2.09.74-3.75 0-.76-.06-1.48-.17-2.15-.11-.66-.29-1.24-.53-1.73-.24-.48-.55-.87-.93-1.15-.38-.28-.84-.42-1.38-.42Zm8.33 11.68v-1.3l1.94-.28-.06-9.46h-2.16v-1.18l2.21-.61-.05-.99c0-.74.16-1.44.48-2.08a5.697 5.697 0 0 1 2.94-2.76c.64-.27 1.28-.4 1.92-.4.37 0 .66.02.85.06.19.04.35.08.49.12l.05 2.73-.12-.09c-.06-.05-.16-.11-.29-.18-.13-.07-.28-.14-.46-.2s-.39-.12-.61-.16c-.21-.04-.45-.06-.7-.06-.31 0-.59.03-.82.08-.23.05-.43.15-.6.3-.17.15-.29.36-.38.62-.09.27-.14.63-.14 1.07v1.95h3.05v1.79h-3.04v9.54l2.33.13.07 1.3v.07h-6.91Zm20.28 0v-1.3l2.94-.39-.07-13.98-3.61.11-.76 4.47-1.77.05.37-6.05 14.25-.07.35 6.12h-1.69l-.82-4.58-3.54-.05v14.05l3.03.24.07 1.31v.07h-8.75zm19.31.25c-.95 0-1.8-.17-2.52-.5-.72-.33-1.33-.8-1.81-1.39-.48-.59-.85-1.31-1.09-2.13-.24-.82-.36-1.73-.36-2.71s.15-1.92.45-2.73c.3-.82.72-1.54 1.26-2.13.54-.59 1.18-1.05 1.92-1.38.74-.32 1.55-.49 2.42-.49 1.42 0 2.54.39 3.33 1.17.78.77 1.22 1.93 1.28 3.44 0 .49 0 .91-.01 1.27-.02.37-.05.69-.11.97l-7.73.06c.03.87.16 1.57.36 2.15.21.59.49 1.08.83 1.46.34.37.73.65 1.16.82.44.17.9.26 1.37.26.31 0 .64-.03.96-.09.32-.06.64-.14.94-.23.3-.1.57-.21.82-.33.24-.12.45-.25.61-.37l.07-.06.51 1.18c-.24.3-.52.51-.85.72-.33.2-.71.38-1.12.54-.41.15-.85.28-1.3.37-.45.09-.92.14-1.39.14Zm2.15-8.03c-.06-.08-.05-.24-.04-.4v-.46c0-.41-.04-.81-.13-1.18-.09-.37-.23-.7-.41-.98a2.04 2.04 0 0 0-.73-.67c-.3-.16-.67-.25-1.11-.25-.36 0-.7.06-1.01.19-.31.12-.58.34-.81.64-.24.3-.43.72-.58 1.23-.15.49-.24 1.13-.28 1.88h5.11Zm11.77 7.78v-1.25l1.41-.28-1.96-2.83-.64-.94-.49.91-1.97 2.84 1.69.23.07 1.25v.07h-5.58v-1.25l1.59-.3L347 60.5l-3.73-4.72-1.3-.29-.05-1.35h5.97v1.28l-1.52.36 1.92 2.61.6.92.5-.89 1.94-2.64-1.54-.29-.06-1.35h5.15v1.28l-1.48.38-3.59 4.56 3.91 5.15 1.25.18.06 1.25v.07h-5.99zm16.36.25c-.21 0-.4 0-.55-.03a.756.756 0 0 1-.41-.16.766.766 0 0 1-.24-.39c-.05-.16-.08-.38-.08-.66v-.25c-.09.08-.21.18-.36.29-.23.18-.5.36-.82.53-.32.18-.7.33-1.11.46-.42.13-.87.2-1.34.2-.52 0-1.02-.07-1.49-.21-.47-.14-.9-.36-1.25-.66-.36-.29-.65-.68-.87-1.15-.22-.47-.33-1.03-.33-1.67 0-.55.1-1.04.31-1.47.2-.43.49-.81.84-1.13.35-.32.78-.6 1.25-.83.47-.22.99-.41 1.54-.55.55-.14 1.12-.25 1.72-.31.57-.06 1.14-.1 1.7-.12v-.52c0-.51-.04-.95-.11-1.31-.07-.35-.2-.63-.37-.85-.17-.22-.41-.37-.7-.47-.3-.1-.68-.15-1.14-.15-.39 0-.8.04-1.19.11-.4.07-.78.16-1.15.27-.37.11-.7.22-1.01.34-.31.12-.56.24-.77.34h-.05l-.06-.03-.5-1.07c.16-.22.41-.39.78-.61.36-.21.79-.41 1.28-.61.49-.19 1.02-.36 1.59-.51.57-.14 1.14-.22 1.7-.22.78 0 1.46.08 2 .24.55.16 1 .43 1.34.79.34.36.59.83.74 1.41.15.57.22 1.27.22 2.08v7.22h1.39v1.16l-.56.2a15.131 15.131 0 0 1-1.28.24c-.23.03-.44.05-.65.05Zm-1.48-6.7c-.85 0-1.58.08-2.15.23-.59.15-1.06.36-1.41.61-.35.25-.59.53-.74.85-.14.32-.22.65-.22 1 0 .4.05.74.16 1.01.1.27.25.5.43.67.18.17.4.29.65.37.25.08.53.11.82.11.15 0 .33-.02.55-.06.21-.04.43-.1.66-.17.23-.07.45-.17.68-.28.22-.11.43-.23.61-.36l-.03-3.98Zm10.95 6.7c-.41 0-.83-.03-1.26-.1-.43-.07-.85-.15-1.25-.25s-.77-.21-1.09-.32c-.33-.12-.59-.22-.78-.31l-.04-3.07h1.66l.53 1.71c.05.09.16.2.32.31.16.11.35.21.57.31.22.09.47.17.74.22.27.06.55.08.85.08.45 0 .83-.05 1.12-.15.29-.1.51-.22.68-.38.16-.15.27-.34.33-.54.06-.21.09-.43.09-.66 0-.28-.06-.53-.19-.75-.13-.23-.32-.44-.58-.65-.26-.21-.61-.42-1.02-.62-.42-.2-.92-.42-1.5-.64-.6-.23-1.13-.48-1.58-.74-.44-.26-.82-.56-1.11-.89-.3-.33-.52-.7-.66-1.11-.14-.4-.21-.87-.21-1.38s.12-1.01.36-1.43c.24-.42.57-.79.99-1.09.42-.3.92-.54 1.49-.7a6.84 6.84 0 0 1 1.85-.24c.46 0 .89.03 1.28.08.39.06.74.12 1.06.2.32.08.59.16.83.24.23.08.42.14.56.19l.05 2.93h-1.56l-.56-1.5c-.09-.17-.29-.34-.6-.5-.31-.16-.72-.24-1.21-.24h-.01c-.42 0-.72.04-.96.11-.26.08-.48.19-.65.32-.16.13-.28.29-.36.47-.08.18-.12.38-.12.58 0 .39.08.7.24.94.16.24.39.45.66.63s.59.33.94.46c.36.13.73.28 1.1.45.52.22 1.01.46 1.48.71.47.24.89.53 1.25.85.36.32.66.7.87 1.13.22.43.33.94.33 1.53s-.11 1.1-.34 1.57-.55.88-.98 1.21c-.42.33-.95.58-1.55.76-.6.18-1.29.27-2.05.27Zm23.4 0c-.21 0-.4 0-.55-.03a.756.756 0 0 1-.41-.16.766.766 0 0 1-.24-.39c-.05-.16-.08-.38-.08-.66v-.25c-.09.08-.21.18-.36.29-.23.18-.5.36-.82.53-.32.18-.7.33-1.11.46-.42.13-.87.2-1.34.2-.52 0-1.02-.07-1.49-.21-.47-.14-.9-.36-1.25-.66-.36-.29-.65-.68-.87-1.15-.22-.47-.33-1.03-.33-1.67 0-.55.1-1.04.31-1.47.2-.43.49-.81.84-1.13.35-.32.78-.6 1.25-.83.47-.22.99-.41 1.54-.55.55-.14 1.12-.25 1.72-.31.57-.06 1.14-.1 1.7-.12v-.52c0-.51-.04-.95-.11-1.31-.07-.35-.2-.63-.37-.85-.17-.22-.41-.37-.7-.47-.3-.1-.68-.15-1.14-.15-.39 0-.8.04-1.19.11-.4.07-.78.16-1.15.27-.37.11-.7.22-1.01.34-.31.12-.56.24-.77.34h-.05l-.06-.03-.5-1.07c.16-.22.41-.39.78-.61.36-.21.79-.41 1.28-.61.49-.19 1.02-.36 1.59-.51.57-.14 1.14-.22 1.7-.22.78 0 1.46.08 2 .24.55.16 1 .43 1.34.79.34.36.59.83.74 1.41.15.57.22 1.27.22 2.08v7.22h1.39v1.16l-.56.2a15.131 15.131 0 0 1-1.28.24c-.23.03-.44.05-.65.05Zm-1.48-6.7c-.85 0-1.58.08-2.15.23-.59.15-1.06.36-1.41.61-.35.25-.59.53-.74.85-.14.32-.22.65-.22 1 0 .4.05.74.16 1.01.1.27.25.5.43.67.18.17.4.29.65.37.25.08.53.11.82.11.15 0 .33-.02.55-.06.21-.04.43-.1.66-.17.23-.07.45-.17.68-.28.22-.11.43-.23.61-.36l-.03-3.98Zm10.19 6.7c-.4 0-.76-.05-1.08-.14-.32-.09-.6-.25-.83-.46-.23-.21-.41-.5-.53-.84-.12-.35-.18-.77-.18-1.27V55.9h-1.62v-1.12c.28-.14.51-.22.73-.3.22-.08.38-.15.48-.22.23-.16.43-.43.6-.81.06-.13.13-.31.22-.53.09-.22.18-.44.26-.67s.16-.45.23-.66c.07-.21.12-.37.15-.49l1.57-.05v3.09h3.74v1.76h-3.74v6.61c0 .66 0 1.18.03 1.55.02.36.07.63.15.8.08.16.19.25.34.29.17.04.4.06.69.06.22 0 .45-.02.68-.04a13.792 13.792 0 0 0 1.29-.24c.18-.05.33-.09.44-.14h.05l.05.04.38 1.1c-.21.22-.45.36-.78.51-.31.15-.66.28-1.03.4-.36.12-.75.22-1.15.3-.4.08-.78.12-1.13.12h-.02Zm23.02-.25v-1.3l1.8-.37-1.03-3.18-6.59.05-.96 3.12 1.81.3.06 1.37h-5.62v-1.3l1.49-.38 5.83-15.57 2.61-.05 5.37 15.67 1.38.26.06 1.37h-6.2Zm.27-6.36-2.35-7.31-.4-1.55-.41 1.55-2.36 7.31h5.53Zm17.71 6.63c-.48 0-.86-.09-1.11-.27-.27-.19-.4-.53-.4-1.02v-.3c-.18.15-.39.31-.63.47-.29.2-.61.38-.95.55-.35.17-.72.3-1.1.41-.39.1-.79.16-1.2.16-.7 0-1.31-.09-1.81-.27a2.83 2.83 0 0 1-1.26-.88c-.33-.4-.57-.93-.72-1.56-.15-.63-.23-1.4-.23-2.31v-6.41l-1.21-.41-.05-1.14 3.29-.43.56.32.03 7.93c0 .61.03 1.14.09 1.56.06.42.18.76.34 1.02.16.25.39.44.67.55.28.11.66.17 1.11.17.32 0 .63-.03.91-.1s.55-.15.79-.25.46-.21.65-.32c.19-.12.35-.23.49-.32l-.03-8.57-1.53-.41-.05-1.15 3.48-.42.69.32.04 11.42h1.35v1.19c-.31.15-.62.24-.98.34-.36.1-.78.15-1.23.15Zm9.45-.02c-.41 0-.83-.03-1.26-.1-.43-.07-.85-.15-1.25-.25s-.77-.21-1.09-.32c-.33-.12-.59-.22-.78-.31l-.04-3.07h1.66l.53 1.71c.05.09.16.2.32.31.16.11.35.21.57.31.22.09.47.17.74.22.27.06.55.08.85.08.45 0 .83-.05 1.12-.15.29-.1.51-.22.68-.38.16-.15.27-.34.33-.54.06-.21.09-.43.09-.66 0-.28-.06-.53-.19-.75-.13-.23-.32-.44-.58-.65-.26-.21-.61-.42-1.02-.62-.42-.2-.92-.42-1.5-.64-.6-.23-1.13-.48-1.58-.74-.44-.26-.82-.56-1.11-.89-.3-.33-.52-.7-.66-1.11-.14-.4-.21-.87-.21-1.38s.12-1.01.36-1.43c.24-.42.57-.79.99-1.09.42-.3.92-.54 1.49-.7a6.84 6.84 0 0 1 1.85-.24c.46 0 .89.03 1.28.08.39.06.74.12 1.06.2.32.08.59.16.83.24.23.08.42.14.56.19l.05 2.93h-1.56l-.56-1.5c-.09-.17-.29-.34-.6-.5-.31-.16-.72-.24-1.21-.24h-.01c-.42 0-.72.04-.96.11-.26.08-.48.19-.65.32-.16.13-.28.29-.36.47-.08.18-.12.38-.12.58 0 .39.08.7.24.94.16.24.39.45.66.63s.59.33.94.46c.36.13.73.28 1.1.45.52.22 1.01.46 1.48.71.47.24.89.53 1.25.85.36.32.66.7.87 1.13.22.43.33.94.33 1.53s-.11 1.1-.34 1.57-.55.88-.98 1.21c-.42.33-.95.58-1.55.76-.6.18-1.29.27-2.05.27Zm11.52 0c-.4 0-.76-.05-1.08-.14-.32-.09-.6-.25-.83-.46-.23-.21-.41-.5-.53-.84-.12-.35-.18-.77-.18-1.27V55.9h-1.62v-1.12c.28-.14.51-.22.73-.3.22-.08.38-.15.48-.22.23-.16.43-.43.6-.81.06-.13.13-.31.22-.53.09-.22.18-.44.26-.67s.16-.45.23-.66c.07-.21.12-.37.15-.49l1.57-.05v3.09h3.74v1.76h-3.74v6.61c0 .66 0 1.18.03 1.55.02.36.07.63.15.8.08.16.19.25.34.29.17.04.4.06.69.06.22 0 .45-.02.68-.04a13.792 13.792 0 0 0 1.29-.24c.18-.05.33-.09.44-.14h.05l.05.04.38 1.1c-.21.22-.45.36-.78.51-.31.15-.66.28-1.03.4-.36.12-.75.22-1.15.3-.4.08-.78.12-1.13.12h-.02Zm5.75-.25v-1.3l1.91-.26-.06-9.23-1.51-.42-.05-1.41 3.47-.53h.11l.59.46.03 11.21 1.75.11.06 1.3v.07h-6.29Zm2.8-15.13c-.23 0-.43-.04-.62-.12-.19-.08-.35-.2-.48-.34a1.5 1.5 0 0 1-.31-.52c-.07-.2-.1-.41-.1-.63 0-.24.25-.48.32-.7.07-.22.76-.43.9-.6.14-.17.33-.32.54-.42.22-.11.47-.16.76-.16.27 0 .5.05.69.14.19.09.36.22.49.37s-.34.32-.27.52c.07.19-.11.4-.11.61 0 .26-.04.51-.11.73a1.584 1.584 0 0 1-.91.99c-.22.1-.49.14-.79.14h-.01Zm13.91 15.13v-1.3l1.54-.26-.06-6.21c0-.59-.03-1.11-.08-1.56-.05-.44-.16-.8-.31-1.09-.15-.28-.37-.5-.66-.64-.29-.14-.67-.22-1.14-.22-.55 0-1.12.1-1.68.3-.56.2-1.06.46-1.47.77l.03 8.72 1.51.12.06 1.3v.07h-5.71v-1.3l1.56-.26-.06-9.23-1.51-.42-.05-1.41 3.25-.53h.03l.09.02.55.45.03.93v.32c.21-.19.48-.37.78-.55.36-.21.75-.4 1.17-.57.41-.17.84-.31 1.27-.41.43-.1.86-.16 1.26-.16.75 0 1.37.1 1.85.31.49.21.88.54 1.16.98.28.44.47 1 .57 1.68.1.67.16 1.48.16 2.42v6.27l1.59.12.06 1.3v.07h-5.77Z" style="fill:#133466"></path></g></svg> 